<?xml version="1.0" encoding="utf-8"?>
<!-- Generator: Adobe Illustrator 25.0.0, SVG Export Plug-In . SVG Version: 6.00 Build 0)  -->
<svg version="1.1" id="Calque_2" xmlns="http://www.w3.org/2000/svg" xmlns:xlink="http://www.w3.org/1999/xlink" x="0px" y="0px"
	 viewBox="0 0 176.2 71.01" style="enable-background:new 0 0 176.2 71.01;" xml:space="preserve">
<style type="text/css">
	.st0{clip-path:url(#SVGID_4_);}
	.st1{opacity:0.4;fill:#FFFFFF;}
	.st2{opacity:0.65;fill:#FFFFFF;}
	.st3{fill:#FFFFFF;}
	.st4{clip-path:url(#SVGID_4_);fill:#FFFFFF;}
</style>
<g id="Calque_1">
	<g>
		<defs>
			<path id="SVGID_1_" d="M111.44,60.62c-1.49,1.82-1.23,4.5,0.59,6c0.79,0.65,1.75,0.97,2.7,0.97c1.23,0,2.45-0.53,3.3-1.56
				c1.49-1.82,1.23-4.5-0.59-6c-0.79-0.65-1.75-0.97-2.7-0.97C113.5,59.06,112.28,59.59,111.44,60.62"/>
		</defs>
		<clipPath id="SVGID_2_">
			<use xlink:href="#SVGID_1_"  style="overflow:visible;"/>
		</clipPath>
	</g>
	<g>
		<defs>
			<rect id="SVGID_3_" width="176.23" height="71.01"/>
		</defs>
		<clipPath id="SVGID_4_">
			<use xlink:href="#SVGID_3_"  style="overflow:visible;"/>
		</clipPath>
		<g class="st0">
			<path class="st1" d="M157.14,22.34c0,0-5.28,5.18-11.59,5.38c-7.27,0.23-11.83-0.97-21.11-26.14c0,0,2.05,10.37,3.22,15.19
				c1.15,4.75,3.79,15.99,12.24,16.76C149.5,34.4,155.47,25.62,157.14,22.34"/>
			<path class="st1" d="M146.51,18.65c0,2.42-1.96,4.39-4.39,4.39c-2.42,0-4.39-1.96-4.39-4.39c0-2.42,1.96-4.38,4.39-4.38
				C144.55,14.26,146.51,16.23,146.51,18.65"/>
			<path class="st2" d="M138.47,26.39c-0.61-0.35-1.21-0.8-1.83-1.35c-0.68-4.75-1.39-9.86-1.39-9.86
				C136.34,19.59,137.41,23.28,138.47,26.39 M138.51,36.31c-0.28-1.12-0.5-2.21-0.67-3.2c0.64,0.21,1.32,0.35,2.05,0.42
				c0.45,0.04,0.9,0.06,1.33,0.06c0.06,0,0.11,0,0.17,0c0.26,0.53,0.52,1.02,0.79,1.49C141.49,35.37,140.18,35.89,138.51,36.31
				 M150.72,48.54c-0.84,0-1.7-0.07-2.58-0.24c-5.17-0.94-7.76-5.68-9.16-10.31c1.4-0.97,2.53-1.96,3.31-2.73
				c3.72,6.53,7.54,7.5,12,7.76c0.23,0.01,0.46,0.02,0.69,0.02c6.02,0,11.33-4.35,11.33-4.35
				C164.53,41.52,158.84,48.54,150.72,48.54"/>
			<path class="st2" d="M141.22,33.59c-0.44,0-0.88-0.02-1.33-0.06c-0.73-0.07-1.41-0.21-2.05-0.42c-0.17-0.97-0.3-1.85-0.41-2.58
				c-0.22-1.47-0.5-3.44-0.79-5.48c0.61,0.55,1.22,0.99,1.83,1.35c0.98,2.86,1.95,5.23,2.92,7.19
				C141.33,33.59,141.28,33.59,141.22,33.59"/>
			<path class="st2" d="M157.04,35.17c-0.22,2.41-2.35,4.19-4.76,3.98c-2.41-0.21-4.19-2.35-3.98-4.76
				c0.21-2.41,2.35-4.19,4.76-3.98C155.48,30.63,157.26,32.76,157.04,35.17"/>
			<path class="st3" d="M142.28,35.26c-0.04-0.06-0.07-0.12-0.11-0.19c0.33-0.14,0.52-0.23,0.52-0.23
				C142.57,34.97,142.43,35.11,142.28,35.26 M128.7,41.55c-1.63,0-3.32-0.28-5.05-0.96c-7.64-2.99-7.07-14.14-6.85-18.87
				c0.22-4.8,1.45-14.95,1.45-14.95c1.84,25.89,6.04,28.72,12.23,29.95c0.98,0.2,1.96,0.28,2.92,0.28c1.85,0,3.63-0.3,5.12-0.68
				c0.14,0.56,0.29,1.12,0.46,1.68C136.33,39.82,132.72,41.55,128.7,41.55"/>
			<path class="st3" d="M138.97,37.99c-0.17-0.57-0.32-1.13-0.46-1.68c1.67-0.42,2.98-0.94,3.66-1.23c0.04,0.06,0.07,0.13,0.11,0.19
				C141.51,36.04,140.38,37.03,138.97,37.99"/>
			<path class="st3" d="M133.72,29.89c-0.75,2.22-3.16,3.41-5.38,2.67c-2.22-0.75-3.41-3.15-2.67-5.38
				c0.75-2.22,3.16-3.41,5.38-2.66C133.27,25.27,134.47,27.67,133.72,29.89"/>
		</g>
		<path class="st4" d="M15.6,21.89c1.77-1.77,3.91-2.66,6.42-2.66c2.51,0,4.65,0.89,6.42,2.66c1.77,1.77,2.66,3.92,2.66,6.44v12.03
			h-2.38v-7.17h-13.4v7.17h-2.38V28.33C12.94,25.81,13.82,23.66,15.6,21.89 M15.32,30.78h13.4v-2.45c0-1.87-0.65-3.45-1.96-4.76
			c-1.31-1.31-2.88-1.96-4.72-1.96c-1.84,0-3.42,0.65-4.74,1.96c-1.32,1.31-1.98,2.89-1.98,4.76V30.78z"/>
		<path class="st4" d="M43.97,29.83H54.5c0,2.89-1.03,5.37-3.1,7.43s-4.55,3.1-7.45,3.1c-2.9,0-5.39-1.03-7.45-3.1
			s-3.1-4.55-3.1-7.47c0-2.92,1.03-5.4,3.1-7.45s4.55-3.08,7.47-3.08c1.91,0,3.67,0.47,5.28,1.42c1.61,0.94,2.88,2.21,3.81,3.8
			h-2.94c-0.75-0.89-1.66-1.58-2.73-2.08c-1.07-0.5-2.22-0.75-3.43-0.75c-2.26,0-4.19,0.8-5.79,2.4c-1.6,1.6-2.4,3.52-2.4,5.77
			c0,2.25,0.8,4.18,2.4,5.77c1.6,1.6,3.53,2.4,5.79,2.4c1.8,0,3.41-0.54,4.84-1.63c1.44-1.09,2.42-2.47,2.96-4.15h-7.8V29.83z"/>
		<rect x="57.43" y="28.54" class="st4" width="10.56" height="2.41"/>
		<polygon class="st4" points="92.56,19.23 95.11,19.23 87.24,40.36 84.69,40.36 76.92,19.23 79.47,19.23 85.98,36.93 		"/>
		<path class="st4" d="M98.64,21.89c1.77-1.77,3.91-2.66,6.42-2.66c2.51,0,4.65,0.89,6.42,2.66c1.77,1.77,2.66,3.92,2.66,6.44v12.03
			h-2.38v-7.17h-13.4v7.17h-2.38V28.33C95.98,25.81,96.87,23.66,98.64,21.89 M98.36,30.78h13.4v-2.45c0-1.87-0.65-3.45-1.96-4.76
			c-1.31-1.31-2.88-1.96-4.72-1.96c-1.84,0-3.42,0.65-4.74,1.96c-1.32,1.31-1.98,2.89-1.98,4.76V30.78z"/>
		<path class="st4" d="M74.04,40.3h-8.36c-4.78,0-8.67-3.89-8.67-8.67v-3.76c0-4.78,3.89-8.67,8.67-8.67h8.36v2.45h-8.36
			c-3.43,0-6.21,2.79-6.21,6.21v3.76c0,3.43,2.79,6.21,6.21,6.21h8.36V40.3z"/>
		<path class="st4" d="M15.36,43.63c0,0.1-0.08,0.18-0.19,0.18h-0.85v2.69c0,0.11-0.08,0.18-0.18,0.18c-0.11,0-0.18-0.07-0.18-0.18
			v-2.69h-0.85c-0.09,0-0.18-0.08-0.18-0.18c0-0.11,0.08-0.18,0.18-0.18h2.06C15.28,43.45,15.36,43.53,15.36,43.63"/>
		<path class="st4" d="M17.82,44.68c0,0.09-0.09,0.17-0.18,0.17h-0.05c-0.21,0-0.37,0.03-0.52,0.11v1.55c0,0.1-0.07,0.18-0.18,0.18
			c-0.1,0-0.18-0.07-0.18-0.18v-1.84c0-0.09,0.08-0.18,0.18-0.18c0.07,0,0.12,0.04,0.15,0.08c0.16-0.05,0.33-0.08,0.54-0.08h0.07
			C17.75,44.51,17.82,44.58,17.82,44.68"/>
		<path class="st4" d="M20.7,46.69c-0.08,0-0.14-0.04-0.17-0.11c-0.15,0.07-0.33,0.11-0.51,0.11c-0.14,0-0.29-0.03-0.41-0.08
			c-0.29-0.12-0.43-0.34-0.43-0.67c0-0.2,0.07-0.35,0.19-0.46c0.15-0.14,0.39-0.21,0.71-0.21c0.05,0,0.1,0,0.15,0.01
			c0.1,0,0.2,0.01,0.29,0.02v-0.05c0-0.14-0.03-0.23-0.09-0.29c-0.07-0.07-0.2-0.1-0.38-0.1c-0.17,0-0.32,0.02-0.44,0.06
			c-0.09,0.04-0.19-0.02-0.23-0.11c-0.02-0.08,0.02-0.18,0.11-0.22c0.16-0.06,0.35-0.09,0.57-0.09c0.28,0,0.5,0.07,0.64,0.21
			c0.13,0.13,0.19,0.31,0.19,0.54v1.27C20.88,46.6,20.81,46.69,20.7,46.69 M20.52,46.17v-0.51c-0.09-0.02-0.2-0.04-0.32-0.04h-0.12
			c-0.23,0-0.38,0.04-0.48,0.11h0.01c-0.05,0.05-0.07,0.11-0.07,0.2c0,0.18,0.07,0.29,0.21,0.35c0.07,0.03,0.17,0.04,0.27,0.04
			c0.18,0,0.36-0.05,0.46-0.13L20.52,46.17z"/>
		<path class="st4" d="M24.29,45.32v1.2c0,0.1-0.08,0.18-0.18,0.18c-0.11,0-0.17-0.07-0.17-0.18v-1.2c0-0.16-0.04-0.28-0.11-0.35
			c-0.07-0.08-0.2-0.12-0.39-0.12c-0.2,0-0.37,0.03-0.51,0.11v1.55c0,0.1-0.08,0.18-0.18,0.18c-0.11,0-0.18-0.07-0.18-0.18v-1.84
			c0-0.09,0.07-0.18,0.18-0.18c0.06,0,0.12,0.03,0.15,0.08c0.16-0.05,0.34-0.08,0.54-0.08c0.3,0,0.52,0.08,0.66,0.24
			C24.23,44.86,24.29,45.07,24.29,45.32"/>
		<path class="st4" d="M25.99,46.61c-0.08-0.03-0.15-0.13-0.12-0.22c0.03-0.09,0.14-0.14,0.23-0.11c0.11,0.04,0.26,0.06,0.39,0.06
			s0.26-0.02,0.33-0.07c0.06-0.04,0.09-0.11,0.09-0.2c0-0.22-0.21-0.31-0.43-0.4c-0.27-0.1-0.58-0.26-0.58-0.61
			c0-0.16,0.06-0.29,0.18-0.39v0.01c0.15-0.13,0.38-0.16,0.58-0.16c0.15,0,0.29,0.02,0.37,0.03c0.09,0.01,0.16,0.11,0.15,0.22
			c-0.02,0.08-0.12,0.15-0.21,0.13c-0.1-0.02-0.21-0.02-0.31-0.02c-0.15,0-0.29,0.02-0.35,0.07c-0.03,0.03-0.04,0.06-0.04,0.12
			c0,0.14,0.13,0.2,0.36,0.29c0.28,0.12,0.64,0.26,0.64,0.72c0,0.21-0.08,0.37-0.23,0.49c-0.15,0.11-0.35,0.15-0.54,0.15
			C26.32,46.69,26.14,46.65,25.99,46.61"/>
		<path class="st4" d="M31.57,45.22v1.29c0,0.1-0.09,0.18-0.18,0.18c-0.1,0-0.18-0.07-0.18-0.18v-1.29c0-0.14-0.02-0.23-0.08-0.28
			c-0.07-0.08-0.18-0.11-0.33-0.1h0.01c-0.09,0.02-0.3,0.12-0.43,0.22c0.01,0.05,0.01,0.09,0.01,0.16v1.29
			c0,0.1-0.08,0.18-0.18,0.18c-0.1,0-0.18-0.07-0.18-0.18v-1.29c0-0.13-0.02-0.23-0.08-0.28c-0.07-0.08-0.18-0.11-0.33-0.1
			c-0.1,0.02-0.28,0.12-0.42,0.21v1.46c0,0.09-0.07,0.18-0.18,0.18c-0.1,0-0.18-0.08-0.18-0.18v-1.84c0-0.09,0.09-0.17,0.18-0.17
			c0.09,0,0.16,0.06,0.17,0.14c0.13-0.06,0.27-0.13,0.39-0.14c0.24-0.02,0.48,0.07,0.61,0.2l0.04,0.04
			c0.14-0.09,0.37-0.22,0.54-0.23c0.24-0.02,0.47,0.06,0.61,0.2C31.51,44.82,31.57,44.99,31.57,45.22"/>
		<path class="st4" d="M34.91,45.32v0.24c0,0.09-0.08,0.17-0.18,0.17h-1.15v0.15c0,0.16,0.03,0.27,0.1,0.34h-0.01
			c0.07,0.08,0.21,0.12,0.42,0.12c0.19,0,0.35-0.02,0.48-0.07c0.09-0.04,0.19,0,0.24,0.1c0.03,0.09-0.01,0.19-0.11,0.23
			c-0.17,0.06-0.36,0.09-0.6,0.09c-0.29,0-0.53-0.08-0.68-0.24c-0.12-0.13-0.2-0.33-0.2-0.58v-0.56c0-0.26,0.07-0.45,0.2-0.58
			c0.14-0.14,0.35-0.22,0.61-0.23c0.31,0,0.55,0.08,0.68,0.24C34.85,44.87,34.91,45.07,34.91,45.32 M34.55,45.32
			c0-0.15-0.04-0.27-0.1-0.35c-0.08-0.07-0.23-0.12-0.42-0.12c-0.18,0-0.3,0.05-0.36,0.12h0.01c-0.07,0.07-0.1,0.18-0.1,0.34v0.07
			h0.98V45.32z"/>
		<path class="st4" d="M37.79,46.51c0,0.1-0.08,0.18-0.19,0.18c-0.06,0-0.47-0.01-0.77-0.29c-0.2-0.19-0.29-0.44-0.29-0.77V43.8
			c0-0.09,0.07-0.18,0.18-0.18c0.1,0,0.17,0.08,0.17,0.18v0.7h0.52c0.1,0,0.18,0.08,0.18,0.18c0,0.09-0.08,0.18-0.18,0.18H36.9v0.77
			c0,0.22,0.07,0.4,0.19,0.52c0.21,0.2,0.52,0.19,0.52,0.19h0.01C37.71,46.33,37.79,46.4,37.79,46.51"/>
		<path class="st4" d="M40.5,46.51c0,0.1-0.08,0.18-0.19,0.18c-0.06,0-0.47-0.01-0.77-0.29c-0.19-0.19-0.29-0.44-0.29-0.77V43.8
			c0-0.09,0.07-0.18,0.18-0.18c0.1,0,0.17,0.08,0.17,0.18v0.7h0.52c0.1,0,0.18,0.08,0.18,0.18c0,0.09-0.08,0.18-0.18,0.18H39.6v0.77
			c0,0.22,0.07,0.4,0.19,0.52c0.21,0.2,0.52,0.19,0.52,0.19h0.01C40.41,46.33,40.5,46.4,40.5,46.51"/>
		<path class="st4" d="M43.1,44.68c0,0.09-0.09,0.17-0.18,0.17h-0.05c-0.21,0-0.37,0.03-0.52,0.11v1.55c0,0.1-0.07,0.18-0.18,0.18
			c-0.1,0-0.18-0.07-0.18-0.18v-1.84c0-0.09,0.08-0.18,0.18-0.18c0.07,0,0.12,0.04,0.15,0.08c0.16-0.05,0.33-0.08,0.54-0.08h0.07
			C43.02,44.51,43.1,44.58,43.1,44.68"/>
		<path class="st4" d="M46.16,45.32v0.24c0,0.09-0.08,0.17-0.18,0.17h-1.15v0.15c0,0.16,0.03,0.27,0.1,0.34h-0.01
			c0.07,0.08,0.21,0.12,0.42,0.12c0.19,0,0.35-0.02,0.48-0.07c0.09-0.04,0.19,0,0.24,0.1c0.03,0.09-0.01,0.19-0.11,0.23
			c-0.17,0.06-0.36,0.09-0.6,0.09c-0.29,0-0.53-0.08-0.68-0.24c-0.12-0.13-0.2-0.33-0.2-0.58v-0.56c0-0.26,0.07-0.45,0.2-0.58
			c0.14-0.14,0.35-0.22,0.61-0.23c0.31,0,0.55,0.08,0.68,0.24C46.09,44.87,46.16,45.07,46.16,45.32 M45.8,45.32
			c0-0.15-0.04-0.27-0.1-0.35c-0.08-0.07-0.23-0.12-0.42-0.12c-0.18,0-0.3,0.05-0.36,0.12h0.01c-0.07,0.07-0.1,0.18-0.1,0.34v0.07
			h0.98V45.32z"/>
		<path class="st4" d="M51.51,46.69c-0.08,0-0.14-0.04-0.17-0.11c-0.15,0.07-0.33,0.11-0.51,0.11c-0.14,0-0.29-0.03-0.41-0.08
			C50.14,46.49,50,46.27,50,45.94c0-0.2,0.07-0.35,0.19-0.46c0.15-0.14,0.39-0.21,0.71-0.21c0.05,0,0.1,0,0.15,0.01
			c0.1,0,0.2,0.01,0.29,0.02v-0.05c0-0.14-0.03-0.23-0.09-0.29c-0.07-0.07-0.2-0.1-0.38-0.1c-0.17,0-0.32,0.02-0.44,0.06
			c-0.09,0.04-0.19-0.02-0.23-0.11c-0.02-0.08,0.02-0.18,0.11-0.22c0.16-0.06,0.35-0.09,0.57-0.09c0.28,0,0.5,0.07,0.64,0.21
			c0.13,0.13,0.19,0.31,0.19,0.54v1.27C51.69,46.6,51.62,46.69,51.51,46.69 M51.33,46.17v-0.51c-0.09-0.02-0.2-0.04-0.32-0.04H50.9
			c-0.23,0-0.38,0.04-0.48,0.11h0.01c-0.05,0.05-0.07,0.11-0.07,0.2c0,0.18,0.07,0.29,0.21,0.35c0.07,0.03,0.17,0.04,0.27,0.04
			c0.18,0,0.36-0.05,0.46-0.13L51.33,46.17z"/>
		<path class="st4" d="M54.8,46.69c-0.07,0-0.12-0.03-0.16-0.08c-0.16,0.05-0.34,0.08-0.53,0.08c-0.3,0-0.52-0.08-0.67-0.24v0.01
			c-0.12-0.13-0.19-0.33-0.19-0.59v-1.2c0-0.09,0.08-0.18,0.18-0.18s0.18,0.08,0.18,0.18v1.2c0,0.17,0.03,0.28,0.1,0.35
			c0.08,0.07,0.21,0.11,0.4,0.11c0.2,0,0.37-0.03,0.51-0.1v-1.56c0-0.09,0.07-0.18,0.18-0.18c0.1,0,0.18,0.08,0.18,0.18v1.84
			C54.98,46.62,54.9,46.69,54.8,46.69"/>
		<path class="st4" d="M57.87,46.51c0,0.1-0.08,0.18-0.19,0.18c-0.06,0-0.47-0.01-0.77-0.29c-0.2-0.19-0.29-0.44-0.29-0.77V43.8
			c0-0.09,0.07-0.18,0.18-0.18c0.1,0,0.17,0.08,0.17,0.18v0.7h0.52c0.1,0,0.18,0.08,0.18,0.18c0,0.09-0.08,0.18-0.18,0.18h-0.52
			v0.77c0,0.22,0.07,0.4,0.19,0.52c0.21,0.2,0.52,0.19,0.52,0.19h0.01C57.78,46.33,57.87,46.4,57.87,46.51"/>
		<path class="st4" d="M60.47,44.68c0,0.09-0.09,0.17-0.18,0.17h-0.05c-0.21,0-0.37,0.03-0.52,0.11v1.55c0,0.1-0.07,0.18-0.18,0.18
			c-0.1,0-0.18-0.07-0.18-0.18v-1.84c0-0.09,0.08-0.18,0.18-0.18c0.07,0,0.12,0.04,0.15,0.08c0.16-0.05,0.33-0.08,0.54-0.08h0.07
			C60.4,44.51,60.47,44.58,60.47,44.68"/>
		<path class="st4" d="M63.53,45.32v0.24c0,0.09-0.08,0.17-0.18,0.17H62.2v0.15c0,0.16,0.03,0.27,0.1,0.34h-0.01
			c0.07,0.08,0.21,0.12,0.42,0.12c0.19,0,0.35-0.02,0.48-0.07c0.09-0.04,0.19,0,0.24,0.1c0.03,0.09-0.01,0.19-0.11,0.23
			c-0.17,0.06-0.36,0.09-0.6,0.09c-0.29,0-0.53-0.08-0.68-0.24c-0.12-0.13-0.2-0.33-0.2-0.58v-0.56c0-0.26,0.07-0.45,0.2-0.58
			c0.14-0.14,0.35-0.22,0.61-0.23c0.31,0,0.55,0.08,0.68,0.24C63.47,44.87,63.53,45.07,63.53,45.32 M63.17,45.32
			c0-0.15-0.04-0.27-0.1-0.35c-0.08-0.07-0.23-0.12-0.42-0.12c-0.18,0-0.3,0.05-0.36,0.12h0.01c-0.07,0.07-0.1,0.18-0.1,0.34v0.07
			h0.97V45.32z"/>
		<path class="st4" d="M67.96,45.22v1.29c0,0.1-0.09,0.18-0.18,0.18c-0.1,0-0.18-0.07-0.18-0.18v-1.29c0-0.14-0.02-0.23-0.08-0.28
			c-0.07-0.08-0.18-0.11-0.33-0.1h0.01c-0.09,0.02-0.3,0.12-0.43,0.22c0.01,0.05,0.01,0.09,0.01,0.16v1.29
			c0,0.1-0.08,0.18-0.18,0.18c-0.1,0-0.18-0.07-0.18-0.18v-1.29c0-0.13-0.02-0.23-0.08-0.28c-0.07-0.08-0.18-0.11-0.33-0.1
			c-0.1,0.02-0.28,0.12-0.42,0.21v1.46c0,0.09-0.07,0.18-0.18,0.18c-0.1,0-0.18-0.08-0.18-0.18v-1.84c0-0.09,0.09-0.17,0.18-0.17
			c0.09,0,0.16,0.06,0.17,0.14c0.13-0.06,0.27-0.13,0.39-0.14c0.24-0.02,0.48,0.07,0.61,0.2l0.04,0.04
			c0.14-0.09,0.37-0.22,0.54-0.23c0.24-0.02,0.47,0.06,0.61,0.2C67.9,44.82,67.96,44.99,67.96,45.22"/>
		<path class="st4" d="M71.3,45.32v0.24c0,0.09-0.08,0.17-0.18,0.17h-1.15v0.15c0,0.16,0.03,0.27,0.1,0.34h-0.01
			c0.07,0.08,0.21,0.12,0.42,0.12c0.19,0,0.35-0.02,0.48-0.07c0.09-0.04,0.19,0,0.24,0.1c0.03,0.09-0.01,0.19-0.11,0.23
			c-0.17,0.06-0.36,0.09-0.6,0.09c-0.29,0-0.53-0.08-0.68-0.24c-0.12-0.13-0.2-0.33-0.2-0.58v-0.56c0-0.26,0.07-0.45,0.2-0.58
			c0.14-0.14,0.35-0.22,0.61-0.23c0.31,0,0.55,0.08,0.68,0.24C71.24,44.87,71.3,45.07,71.3,45.32 M70.94,45.32
			c0-0.15-0.04-0.27-0.1-0.35c-0.08-0.07-0.23-0.12-0.42-0.12c-0.18,0-0.3,0.05-0.36,0.12h0.01c-0.07,0.07-0.1,0.18-0.1,0.34v0.07
			h0.97V45.32z"/>
		<path class="st4" d="M74.71,45.32v1.2c0,0.1-0.08,0.18-0.18,0.18c-0.11,0-0.17-0.07-0.17-0.18v-1.2c0-0.16-0.04-0.28-0.11-0.35
			c-0.07-0.08-0.2-0.12-0.39-0.12c-0.2,0-0.37,0.03-0.51,0.11v1.55c0,0.1-0.08,0.18-0.18,0.18c-0.11,0-0.18-0.07-0.18-0.18v-1.84
			c0-0.09,0.07-0.18,0.18-0.18c0.07,0,0.12,0.03,0.15,0.08c0.16-0.05,0.34-0.08,0.54-0.08c0.3,0,0.52,0.08,0.66,0.24
			C74.65,44.86,74.71,45.07,74.71,45.32"/>
		<path class="st4" d="M77.6,46.51c0,0.1-0.08,0.18-0.19,0.18c-0.06,0-0.47-0.01-0.77-0.29c-0.2-0.19-0.29-0.44-0.29-0.77V43.8
			c0-0.09,0.07-0.18,0.18-0.18c0.1,0,0.17,0.08,0.17,0.18v0.7h0.52c0.1,0,0.18,0.08,0.18,0.18c0,0.09-0.08,0.18-0.18,0.18H76.7v0.77
			c0,0.22,0.07,0.4,0.19,0.52c0.21,0.2,0.52,0.19,0.52,0.19h0.01C77.51,46.33,77.6,46.4,77.6,46.51"/>
		<path class="st4" d="M83.11,45.32v0.55c0,0.26-0.07,0.46-0.18,0.58v0c-0.14,0.16-0.36,0.23-0.66,0.23c-0.2,0-0.36-0.02-0.52-0.08
			v0.95c0,0.1-0.08,0.18-0.18,0.18c-0.11,0-0.18-0.07-0.18-0.18v-2.88c0-0.09,0.08-0.18,0.18-0.18c0.07,0,0.12,0.04,0.15,0.09
			c0.16-0.06,0.35-0.09,0.54-0.09c0.3,0,0.52,0.08,0.66,0.24C83.04,44.86,83.11,45.07,83.11,45.32 M81.74,44.96L81.74,44.96
			l-0.04,0.02l0.04-0.07V44.96z M82.75,45.32c0-0.17-0.04-0.28-0.1-0.35c-0.07-0.07-0.2-0.11-0.39-0.11s-0.36,0.04-0.52,0.11v1.26
			l0.01,0.01v0.01c0.14,0.07,0.31,0.1,0.51,0.1c0.2,0,0.33-0.04,0.39-0.11c0.07-0.07,0.1-0.19,0.1-0.35V45.32z"/>
		<path class="st4" d="M84.69,45.87v-0.56c0-0.81,0.63-0.81,0.84-0.81s0.84,0,0.84,0.81v0.56c0,0.81-0.63,0.81-0.84,0.81
			S84.69,46.69,84.69,45.87 M85.04,45.31v0.56c0,0.4,0.23,0.46,0.48,0.46c0.25,0,0.48-0.06,0.48-0.46v-0.56
			c0-0.4-0.23-0.46-0.48-0.46C85.27,44.85,85.04,44.91,85.04,45.31"/>
		<path class="st4" d="M89.48,46.69c-0.07,0-0.12-0.03-0.16-0.08c-0.16,0.05-0.34,0.08-0.53,0.08c-0.3,0-0.52-0.08-0.67-0.24v0.01
			c-0.12-0.13-0.19-0.33-0.19-0.59v-1.2c0-0.09,0.08-0.18,0.18-0.18s0.18,0.08,0.18,0.18v1.2c0,0.17,0.03,0.28,0.09,0.35
			c0.08,0.07,0.21,0.11,0.4,0.11c0.2,0,0.37-0.03,0.51-0.1v-1.56c0-0.09,0.07-0.18,0.18-0.18c0.1,0,0.18,0.08,0.18,0.18v1.84
			C89.66,46.62,89.58,46.69,89.48,46.69"/>
		<path class="st4" d="M92.44,44.68c0,0.09-0.09,0.17-0.18,0.17h-0.05c-0.21,0-0.37,0.03-0.52,0.11v1.55c0,0.1-0.07,0.18-0.18,0.18
			c-0.1,0-0.18-0.07-0.18-0.18v-1.84c0-0.09,0.08-0.18,0.18-0.18c0.07,0,0.12,0.04,0.15,0.08c0.16-0.05,0.33-0.08,0.54-0.08h0.07
			C92.37,44.51,92.44,44.58,92.44,44.68"/>
		<path class="st4" d="M97.29,44.68c0,0.09-0.09,0.17-0.18,0.17h-0.05c-0.21,0-0.37,0.03-0.52,0.11v1.55c0,0.1-0.07,0.18-0.18,0.18
			c-0.1,0-0.18-0.07-0.18-0.18v-1.84c0-0.09,0.08-0.18,0.18-0.18c0.07,0,0.12,0.04,0.15,0.08c0.16-0.05,0.33-0.08,0.54-0.08h0.07
			C97.21,44.51,97.29,44.58,97.29,44.68"/>
		<path class="st4" d="M100.35,45.32v0.24c0,0.09-0.08,0.17-0.18,0.17h-1.15v0.15c0,0.16,0.03,0.27,0.1,0.34h-0.01
			c0.07,0.08,0.21,0.12,0.42,0.12c0.19,0,0.35-0.02,0.48-0.07c0.09-0.04,0.19,0,0.24,0.1c0.04,0.09-0.01,0.19-0.11,0.23
			c-0.17,0.06-0.36,0.09-0.6,0.09c-0.29,0-0.53-0.08-0.68-0.23c-0.12-0.13-0.2-0.33-0.2-0.58v-0.56c0-0.26,0.07-0.45,0.2-0.58
			c0.14-0.14,0.35-0.22,0.61-0.23c0.31,0,0.55,0.08,0.69,0.24C100.28,44.87,100.35,45.07,100.35,45.32 M99.99,45.32
			c0-0.15-0.04-0.27-0.1-0.35c-0.08-0.07-0.23-0.12-0.42-0.12c-0.18,0-0.29,0.05-0.36,0.12h0.01c-0.07,0.07-0.1,0.18-0.1,0.34v0.07
			h0.98V45.32z M99.74,43.68c0.07,0.03,0.12,0.13,0.08,0.21v-0.01c-0.07,0.14-0.14,0.29-0.2,0.44v-0.01
			c-0.02,0.05-0.08,0.1-0.14,0.1c-0.12,0-0.2-0.1-0.15-0.22l0.2-0.44C99.57,43.69,99.66,43.64,99.74,43.68L99.74,43.68z"/>
		<path class="st4" d="M103.46,46.69c-0.07,0-0.12-0.03-0.16-0.08c-0.16,0.05-0.34,0.08-0.53,0.08c-0.3,0-0.52-0.08-0.67-0.24v0.01
			c-0.12-0.13-0.19-0.33-0.19-0.59v-1.2c0-0.09,0.08-0.18,0.18-0.18s0.18,0.08,0.18,0.18v1.2c0,0.17,0.03,0.28,0.1,0.35
			c0.08,0.07,0.21,0.11,0.4,0.11c0.2,0,0.37-0.03,0.51-0.1v-1.56c0-0.09,0.07-0.18,0.18-0.18c0.1,0,0.18,0.08,0.18,0.18v1.84
			C103.64,46.62,103.56,46.69,103.46,46.69"/>
		<path class="st4" d="M105.33,46.61c-0.08-0.03-0.15-0.13-0.12-0.22c0.03-0.09,0.14-0.14,0.23-0.11c0.11,0.04,0.26,0.06,0.39,0.06
			s0.26-0.02,0.33-0.07c0.06-0.04,0.09-0.11,0.09-0.2c0-0.22-0.21-0.31-0.43-0.4c-0.27-0.1-0.58-0.26-0.58-0.61
			c0-0.16,0.06-0.29,0.18-0.39v0.01c0.15-0.13,0.38-0.16,0.58-0.16c0.15,0,0.29,0.02,0.37,0.03c0.09,0.01,0.16,0.11,0.15,0.22
			c-0.02,0.08-0.12,0.15-0.21,0.13c-0.1-0.02-0.21-0.02-0.31-0.02c-0.15,0-0.29,0.02-0.35,0.07c-0.03,0.03-0.04,0.06-0.04,0.12
			c0,0.14,0.13,0.2,0.36,0.29c0.28,0.12,0.64,0.26,0.64,0.72c0,0.21-0.08,0.37-0.23,0.49c-0.15,0.11-0.35,0.15-0.54,0.15
			C105.66,46.69,105.48,46.65,105.33,46.61"/>
		<path class="st4" d="M108.17,46.61c-0.08-0.03-0.15-0.13-0.12-0.22c0.03-0.09,0.14-0.14,0.23-0.11c0.11,0.04,0.26,0.06,0.39,0.06
			s0.25-0.02,0.33-0.07c0.06-0.04,0.09-0.11,0.09-0.2c0-0.22-0.21-0.31-0.43-0.4c-0.26-0.1-0.57-0.26-0.57-0.61
			c0-0.16,0.06-0.29,0.18-0.39v0.01c0.15-0.13,0.38-0.16,0.58-0.16c0.15,0,0.29,0.02,0.37,0.03c0.09,0.01,0.16,0.11,0.15,0.22
			c-0.02,0.08-0.12,0.15-0.21,0.13c-0.1-0.02-0.22-0.02-0.31-0.02c-0.15,0-0.29,0.02-0.35,0.07c-0.03,0.03-0.05,0.06-0.05,0.12
			c0,0.14,0.13,0.2,0.36,0.29c0.28,0.12,0.64,0.26,0.64,0.72c0,0.21-0.07,0.37-0.23,0.49c-0.15,0.11-0.34,0.15-0.54,0.15
			C108.5,46.69,108.32,46.65,108.17,46.61"/>
		<path class="st4" d="M111.42,44.01c0,0.12-0.1,0.22-0.22,0.22c-0.11,0-0.21-0.1-0.21-0.22c0-0.12,0.1-0.21,0.21-0.21
			C111.32,43.8,111.42,43.89,111.42,44.01 M111.38,44.67v1.84c0,0.1-0.07,0.18-0.18,0.18c-0.1,0-0.17-0.07-0.17-0.18v-1.84
			c0-0.09,0.07-0.18,0.17-0.18C111.31,44.5,111.38,44.58,111.38,44.67"/>
		<path class="st4" d="M114.12,44.68c0,0.09-0.09,0.17-0.18,0.17h-0.05c-0.21,0-0.37,0.03-0.52,0.11v1.55c0,0.1-0.07,0.18-0.18,0.18
			c-0.1,0-0.18-0.07-0.18-0.18v-1.84c0-0.09,0.08-0.18,0.18-0.18c0.07,0,0.12,0.04,0.15,0.08c0.16-0.05,0.33-0.08,0.54-0.08h0.07
			C114.04,44.51,114.12,44.58,114.12,44.68"/>
	</g>
</g>
</svg>
