<svg id="Calque_1" data-name="Calque 1" xmlns="http://www.w3.org/2000/svg" xmlns:xlink="http://www.w3.org/1999/xlink" viewBox="0 0 94.47 147.18"><defs><style>.cls-1{fill:#fdda26;}.cls-2{opacity:0.07;}.cls-3{fill:#070909;}.cls-4,.cls-8{fill:#8f8f8f;}.cls-4{stroke:#8f8f8f;stroke-miterlimit:10;stroke-width:0.5px;}.cls-5{clip-path:url(#clip-path);}.cls-6{opacity:0.2;}.cls-7{fill:#fff;}.cls-9{fill:#a2a2a2;}</style><clipPath id="clip-path" transform="translate(19.13)"><path class="cls-1" d="M9.57,127.71a25.68,25.68,0,1,1,36.11-3.89A25.69,25.69,0,0,1,9.57,127.71Z"/></clipPath></defs><g class="cls-2"><rect class="cls-3" x="48.07" width="0.44" height="78.09"/><path class="cls-3" d="M50.12,124.93l.05-.06A25.68,25.68,0,0,0,33.82,84.6V81.79c0-.2-.94-.37-2.33-.46v-3a5,5,0,0,0-2.18-.25,5,5,0,0,0-2.19.25v3c-1.38.09-2.32.26-2.32.46V84.6A25.71,25.71,0,0,0,13.05,90h0l0,0c-.35.29-.7.59-1,.9l-.62.59-.33.33c-.28.28-.55.57-.81.86l-.06.07a25.42,25.42,0,0,0-5.46,9.76c0,.12-.07.24-.1.36s-.14.5-.2.75-.09.38-.14.57-.09.43-.13.64-.09.46-.13.69l-.09.59c0,.25-.07.5-.1.76l-.06.54-.06.8,0,.52c0,.28,0,.56,0,.84s0,.32,0,.49l0,.89c0,.34,0,.67.07,1s0,.44,0,.66.07.57.11.85l.06.41c.05.31.11.61.17.91l.06.34c.07.32.14.63.22,1a2,2,0,0,0,.07.26c.08.34.18.68.28,1,0,.05,0,.11,0,.16.11.37.23.73.36,1.09h0a25.15,25.15,0,0,0,3.49,6.51l.08.12c.22.29.44.57.67.85l.18.22c.22.26.44.51.67.76l.25.27c.22.24.44.47.67.7s.2.2.31.29l.68.65.27.23.76.64a25.68,25.68,0,0,0,34.89-2.48c.42-.45.83-.91,1.23-1.4S49.86,125.29,50.12,124.93Z" transform="translate(19.13)"/></g><rect class="cls-4" x="44.45" y="0.58" width="0.44" height="75.34"/><path class="cls-1" d="M9.57,127.71a25.68,25.68,0,1,1,36.11-3.89A25.69,25.69,0,0,1,9.57,127.71Z" transform="translate(19.13)"/><g class="cls-5"><polygon class="cls-1" points="85.08 66.82 77.51 74.39 69.94 66.82 62.37 74.39 54.8 66.82 47.23 74.39 39.66 66.82 32.09 74.39 24.52 66.82 16.95 74.39 9.39 66.82 0 76.21 1.82 78.03 9.39 70.45 15.14 76.21 15.14 76.21 16.95 78.03 18.77 76.21 24.52 70.45 30.28 76.21 32.09 78.03 33.91 76.21 39.66 70.45 45.42 76.21 47.23 78.03 49.05 76.21 54.8 70.45 60.55 76.21 62.37 78.03 64.19 76.21 64.19 76.21 69.94 70.45 75.69 76.21 77.51 78.03 79.33 76.21 85.08 70.45 92.65 78.03 94.47 76.21 85.08 66.82"/><polygon class="cls-1" points="85.08 70.46 77.51 78.03 69.94 70.46 62.37 78.03 54.8 70.46 47.23 78.03 39.66 70.46 32.09 78.03 24.52 70.46 16.95 78.03 9.39 70.46 0 79.85 1.82 81.66 9.39 74.09 15.14 79.85 15.14 79.85 16.95 81.66 18.77 79.85 24.52 74.09 30.28 79.85 32.09 81.66 33.91 79.85 39.66 74.09 45.42 79.85 47.23 81.66 49.05 79.85 54.8 74.09 60.55 79.85 62.37 81.66 64.19 79.85 64.19 79.85 69.94 74.09 75.69 79.85 77.51 81.66 79.33 79.85 85.08 74.09 92.65 81.66 94.47 79.85 85.08 70.46"/><polygon class="cls-1" points="85.08 74.1 77.51 81.67 69.94 74.1 62.37 81.67 54.8 74.1 47.23 81.67 39.66 74.1 32.09 81.67 24.52 74.1 16.95 81.67 9.39 74.1 0 83.49 1.82 85.3 9.39 77.73 15.14 83.49 15.14 83.49 16.95 85.3 18.77 83.49 24.52 77.73 30.28 83.49 32.09 85.3 33.91 83.49 39.66 77.73 45.42 83.49 47.23 85.3 49.05 83.49 54.8 77.73 60.55 83.49 62.37 85.3 64.19 83.49 64.19 83.49 69.94 77.73 75.69 83.49 77.51 85.3 79.33 83.49 85.08 77.73 92.65 85.3 94.47 83.49 85.08 74.1"/><polygon class="cls-1" points="85.08 77.74 77.51 85.31 69.94 77.74 62.37 85.31 54.8 77.74 47.23 85.31 39.66 77.74 32.09 85.31 24.52 77.74 16.95 85.31 9.39 77.74 0 87.13 1.82 88.94 9.39 81.37 15.14 87.13 15.14 87.13 16.95 88.94 18.77 87.13 24.52 81.37 30.28 87.13 32.09 88.94 33.91 87.13 39.66 81.37 45.42 87.13 47.23 88.94 49.05 87.13 54.8 81.37 60.55 87.13 62.37 88.94 64.19 87.13 64.19 87.13 69.94 81.37 75.69 87.13 77.51 88.94 79.33 87.13 85.08 81.37 92.65 88.94 94.47 87.13 85.08 77.74"/><polygon class="cls-1" points="85.08 81.38 77.51 88.95 69.94 81.38 62.37 88.95 54.8 81.38 47.23 88.95 39.66 81.38 32.09 88.95 24.52 81.38 16.95 88.95 9.39 81.38 0 90.77 1.82 92.58 9.39 85.01 15.14 90.77 15.14 90.77 16.95 92.58 18.77 90.77 24.52 85.01 30.28 90.77 32.09 92.58 33.91 90.77 39.66 85.01 45.42 90.77 47.23 92.58 49.05 90.77 54.8 85.01 60.55 90.77 62.37 92.58 64.19 90.77 64.19 90.77 69.94 85.01 75.69 90.77 77.51 92.58 79.33 90.77 85.08 85.01 92.65 92.58 94.47 90.77 85.08 81.38"/><polygon class="cls-1" points="85.08 85.02 77.51 92.59 69.94 85.02 62.37 92.59 54.8 85.02 47.23 92.59 39.66 85.02 32.09 92.59 24.52 85.02 16.95 92.59 9.39 85.02 0 94.41 1.82 96.22 9.39 88.65 15.14 94.41 15.14 94.41 16.95 96.22 18.77 94.41 24.52 88.65 30.28 94.41 32.09 96.22 33.91 94.41 39.66 88.65 45.42 94.41 47.23 96.22 49.05 94.41 54.8 88.65 60.55 94.41 62.37 96.22 64.19 94.41 64.19 94.41 69.94 88.65 75.69 94.41 77.51 96.22 79.33 94.41 85.08 88.65 92.65 96.22 94.47 94.41 85.08 85.02"/><polygon class="cls-1" points="85.08 88.66 77.51 96.23 69.94 88.66 62.37 96.23 54.8 88.66 47.23 96.23 39.66 88.66 32.09 96.23 24.52 88.66 16.95 96.23 9.39 88.66 0 98.05 1.82 99.86 9.39 92.29 15.14 98.05 15.14 98.05 16.95 99.86 18.77 98.05 24.52 92.29 30.28 98.05 32.09 99.86 33.91 98.05 39.66 92.29 45.42 98.05 47.23 99.86 49.05 98.05 54.8 92.29 60.55 98.05 62.37 99.86 64.19 98.05 64.19 98.05 69.94 92.29 75.69 98.05 77.51 99.86 79.33 98.05 85.08 92.29 92.65 99.86 94.47 98.05 85.08 88.66"/><polygon class="cls-1" points="85.08 92.3 77.51 99.87 69.94 92.3 62.37 99.87 54.8 92.3 47.23 99.87 39.66 92.3 32.09 99.87 24.52 92.3 16.95 99.87 9.39 92.3 0 101.69 1.82 103.5 9.39 95.93 15.14 101.69 15.14 101.69 16.95 103.5 18.77 101.69 24.52 95.93 30.28 101.69 32.09 103.5 33.91 101.69 39.66 95.93 45.42 101.69 47.23 103.5 49.05 101.69 54.8 95.93 60.55 101.69 62.37 103.5 64.19 101.69 64.19 101.69 69.94 95.93 75.69 101.69 77.51 103.5 79.33 101.69 85.08 95.93 92.65 103.5 94.47 101.69 85.08 92.3"/><polygon class="cls-1" points="85.08 95.94 77.51 103.51 69.94 95.94 62.37 103.51 54.8 95.94 47.23 103.51 39.66 95.94 32.09 103.51 24.52 95.94 16.95 103.51 9.39 95.94 0 105.33 1.82 107.14 9.39 99.57 15.14 105.33 15.14 105.33 16.95 107.14 18.77 105.33 24.52 99.57 30.28 105.33 32.09 107.14 33.91 105.33 39.66 99.57 45.42 105.33 47.23 107.14 49.05 105.33 54.8 99.57 60.55 105.33 62.37 107.14 64.19 105.33 64.19 105.33 69.94 99.57 75.69 105.33 77.51 107.14 79.33 105.33 85.08 99.57 92.65 107.14 94.47 105.33 85.08 95.94"/><polygon class="cls-1" points="85.08 99.58 77.51 107.15 69.94 99.58 62.37 107.15 54.8 99.58 47.23 107.15 39.66 99.58 32.09 107.15 24.52 99.58 16.95 107.15 9.39 99.58 0 108.96 1.82 110.78 9.39 103.21 15.14 108.96 15.14 108.96 16.95 110.78 18.77 108.96 24.52 103.21 30.28 108.96 32.09 110.78 33.91 108.96 39.66 103.21 45.42 108.96 47.23 110.78 49.05 108.96 54.8 103.21 60.55 108.96 62.37 110.78 64.19 108.96 64.19 108.96 69.94 103.21 75.69 108.96 77.51 110.78 79.33 108.96 85.08 103.21 92.65 110.78 94.47 108.96 85.08 99.58"/><polygon class="cls-1" points="85.08 103.22 77.51 110.79 69.94 103.22 62.37 110.79 54.8 103.22 47.23 110.79 39.66 103.22 32.09 110.79 24.52 103.22 16.95 110.79 9.39 103.22 0 112.6 1.82 114.42 9.39 106.85 15.14 112.6 15.14 112.6 16.95 114.42 18.77 112.6 24.52 106.85 30.28 112.6 32.09 114.42 33.91 112.6 39.66 106.85 45.42 112.6 47.23 114.42 49.05 112.6 54.8 106.85 60.55 112.6 62.37 114.42 64.19 112.6 64.19 112.6 69.94 106.85 75.69 112.6 77.51 114.42 79.33 112.6 85.08 106.85 92.65 114.42 94.47 112.6 85.08 103.22"/><polygon class="cls-1" points="85.08 106.86 77.51 114.43 69.94 106.86 62.37 114.43 54.8 106.86 47.23 114.43 39.66 106.86 32.09 114.43 24.52 106.86 16.95 114.43 9.39 106.86 0 116.24 1.82 118.06 9.39 110.49 15.14 116.24 15.14 116.24 16.95 118.06 18.77 116.24 24.52 110.49 30.28 116.24 32.09 118.06 33.91 116.24 39.66 110.49 45.42 116.24 47.23 118.06 49.05 116.24 54.8 110.49 60.55 116.24 62.37 118.06 64.19 116.24 64.19 116.24 69.94 110.49 75.69 116.24 77.51 118.06 79.33 116.24 85.08 110.49 92.65 118.06 94.47 116.24 85.08 106.86"/><polygon class="cls-1" points="85.08 110.5 77.51 118.07 69.94 110.5 62.37 118.07 54.8 110.5 47.23 118.07 39.66 110.5 32.09 118.07 24.52 110.5 16.95 118.07 9.39 110.5 0 119.88 1.82 121.7 9.39 114.13 15.14 119.88 15.14 119.88 16.95 121.7 18.77 119.88 24.52 114.13 30.28 119.88 32.09 121.7 33.91 119.88 39.66 114.13 45.42 119.88 47.23 121.7 49.05 119.88 54.8 114.13 60.55 119.88 62.37 121.7 64.19 119.88 64.19 119.88 69.94 114.13 75.69 119.88 77.51 121.7 79.33 119.88 85.08 114.13 92.65 121.7 94.47 119.88 85.08 110.5"/><polygon class="cls-1" points="85.08 114.14 77.51 121.71 69.94 114.14 62.37 121.71 54.8 114.14 47.23 121.71 39.66 114.14 32.09 121.71 24.52 114.14 16.95 121.71 9.39 114.14 0 123.52 1.82 125.34 9.39 117.77 15.14 123.52 15.14 123.52 16.95 125.34 18.77 123.52 24.52 117.77 30.28 123.52 32.09 125.34 33.91 123.52 39.66 117.77 45.42 123.52 47.23 125.34 49.05 123.52 54.8 117.77 60.55 123.52 62.37 125.34 64.19 123.52 64.19 123.52 69.94 117.77 75.69 123.52 77.51 125.34 79.33 123.52 85.08 117.77 92.65 125.34 94.47 123.52 85.08 114.14"/><polygon class="cls-1" points="85.08 117.78 77.51 125.35 69.94 117.78 62.37 125.35 54.8 117.78 47.23 125.35 39.66 117.78 32.09 125.35 24.52 117.78 16.95 125.35 9.39 117.78 0 127.16 1.82 128.98 9.39 121.41 15.14 127.16 15.14 127.16 16.95 128.98 18.77 127.16 24.52 121.41 30.28 127.16 32.09 128.98 33.91 127.16 39.66 121.41 45.42 127.16 47.23 128.98 49.05 127.16 54.8 121.41 60.55 127.16 62.37 128.98 64.19 127.16 64.19 127.16 69.94 121.41 75.69 127.16 77.51 128.98 79.33 127.16 85.08 121.41 92.65 128.98 94.47 127.16 85.08 117.78"/><polygon class="cls-1" points="85.08 121.42 77.51 128.99 69.94 121.42 62.37 128.99 54.8 121.42 47.23 128.99 39.66 121.42 32.09 128.99 24.52 121.42 16.95 128.99 9.39 121.42 0 130.8 1.82 132.62 9.39 125.05 15.14 130.8 15.14 130.8 16.95 132.62 18.77 130.8 24.52 125.05 30.28 130.8 32.09 132.62 33.91 130.8 39.66 125.05 45.42 130.8 47.23 132.62 49.05 130.8 54.8 125.05 60.55 130.8 62.37 132.62 64.19 130.8 64.19 130.8 69.94 125.05 75.69 130.8 77.51 132.62 79.33 130.8 85.08 125.05 92.65 132.62 94.47 130.8 85.08 121.42"/><polygon class="cls-1" points="85.08 125.06 77.51 132.63 69.94 125.06 62.37 132.63 54.8 125.06 47.23 132.63 39.66 125.06 32.09 132.63 24.52 125.06 16.95 132.63 9.39 125.06 0 134.44 1.82 136.26 9.39 128.69 15.14 134.44 15.14 134.44 16.95 136.26 18.77 134.44 24.52 128.69 30.28 134.44 32.09 136.26 33.91 134.44 39.66 128.69 45.42 134.44 47.23 136.26 49.05 134.44 54.8 128.69 60.55 134.44 62.37 136.26 64.19 134.44 64.19 134.44 69.94 128.69 75.69 134.44 77.51 136.26 79.33 134.44 85.08 128.69 92.65 136.26 94.47 134.44 85.08 125.06"/><polygon class="cls-1" points="85.08 128.69 77.51 136.26 69.94 128.69 62.37 136.26 54.8 128.69 47.23 136.26 39.66 128.69 32.09 136.26 24.52 128.69 16.95 136.26 9.39 128.69 0 138.08 1.82 139.9 9.39 132.33 15.14 138.08 15.14 138.08 16.95 139.9 18.77 138.08 24.52 132.33 30.28 138.08 32.09 139.9 33.91 138.08 39.66 132.33 45.42 138.08 47.23 139.9 49.05 138.08 54.8 132.33 60.55 138.08 62.37 139.9 64.19 138.08 64.19 138.08 69.94 132.33 75.69 138.08 77.51 139.9 79.33 138.08 85.08 132.33 92.65 139.9 94.47 138.08 85.08 128.69"/><polygon class="cls-1" points="85.08 132.33 77.51 139.9 69.94 132.33 62.37 139.9 54.8 132.33 47.23 139.9 39.66 132.33 32.09 139.9 24.52 132.33 16.95 139.9 9.39 132.33 0 141.72 1.82 143.54 9.39 135.97 15.14 141.72 15.14 141.72 16.95 143.54 18.77 141.72 24.52 135.97 30.28 141.72 32.09 143.54 33.91 141.72 39.66 135.97 45.42 141.72 47.23 143.54 49.05 141.72 54.8 135.97 60.55 141.72 62.37 143.54 64.19 141.72 64.19 141.72 69.94 135.97 75.69 141.72 77.51 143.54 79.33 141.72 85.08 135.97 92.65 143.54 94.47 141.72 85.08 132.33"/><polygon class="cls-1" points="85.08 135.97 77.51 143.54 69.94 135.97 62.37 143.54 54.8 135.97 47.23 143.54 39.66 135.97 32.09 143.54 24.52 135.97 16.95 143.54 9.39 135.97 0 145.36 1.82 147.18 9.39 139.61 15.14 145.36 15.14 145.36 16.95 147.18 18.77 145.36 24.52 139.61 30.28 145.36 32.09 147.18 33.91 145.36 39.66 139.61 45.42 145.36 47.23 147.18 49.05 145.36 54.8 139.61 60.55 145.36 62.37 147.18 64.19 145.36 64.19 145.36 69.94 139.61 75.69 145.36 77.51 147.18 79.33 145.36 85.08 139.61 92.65 147.18 94.47 145.36 85.08 135.97"/></g><g class="cls-6"><path class="cls-3" d="M9.43,87.81a25.69,25.69,0,1,0,36.25,36,26.65,26.65,0,0,0,2.9-4.47A25.69,25.69,0,0,1,9.43,87.81Z" transform="translate(19.13)"/></g><path class="cls-7" d="M42.4,106.59h-.2a1.6,1.6,0,0,1-1.39-1.77c0-.3.56-6.63-8.33-10.84a1.6,1.6,0,0,1,1.37-2.89C44.94,96.34,44,104.83,44,105.2A1.6,1.6,0,0,1,42.4,106.59Z" transform="translate(19.13)"/><path class="cls-8" d="M30.2,82.44c0,.8-6.9,1.5-9,0V79.62h9Z" transform="translate(19.13)"/><path class="cls-9" d="M30.2,79.62c0,.29-2,.77-4.51.77s-4.51-.48-4.51-.77,2-.53,4.51-.53S30.2,79.33,30.2,79.62Z" transform="translate(19.13)"/><path class="cls-8" d="M27.87,79.19c0,.39-3.34.73-4.37,0v-3h4.37Z" transform="translate(19.13)"/><path class="cls-9" d="M27.87,76.17a4.2,4.2,0,0,1-2.18.36,4.23,4.23,0,0,1-2.19-.36,5,5,0,0,1,2.19-.25A5,5,0,0,1,27.87,76.17Z" transform="translate(19.13)"/></svg>