<svg id="Calque_1" data-name="Calque 1" xmlns="http://www.w3.org/2000/svg" viewBox="0 0 54.99 86.75"><defs><style>.cls-1{opacity:0.07;}.cls-2{fill:#070909;}.cls-3{fill:#8f8f8f;}.cls-4{fill:#ff5d58;}.cls-5{opacity:0.2;}.cls-6{fill:#fff;}.cls-7{fill:#a2a2a2;}</style></defs><g class="cls-1"><path class="cls-2" d="M50.16,76.06A25.7,25.7,0,0,0,33.82,35.77h0V33c0-.2-.94-.37-2.33-.46v-3a4.79,4.79,0,0,0-2.11-.25V0h-.44V29.25a4,4,0,0,0-1.82.25v3c-1.38.09-2.32.26-2.32.46v2.82h0a25.59,25.59,0,0,0-11.76,5.39h0l0,0c-.35.29-.7.59-1,.9l-.62.6L11,43q-.42.42-.81.87l-.06.06a25.45,25.45,0,0,0-5.46,9.77c0,.12-.07.24-.1.35s-.14.5-.2.75-.09.38-.14.57-.09.44-.13.65S4,56.5,4,56.73l-.09.58c0,.26-.07.51-.1.76l-.06.54-.06.81,0,.51c0,.29,0,.57,0,.85s0,.32,0,.48l0,.89c0,.34,0,.68.07,1s0,.44,0,.66.07.56.11.85l.06.41c.05.3.11.61.17.91l.06.33c.07.32.14.64.22,1a2.5,2.5,0,0,0,.07.26c.08.34.18.67.28,1,0,0,0,.11,0,.16q.17.54.36,1.08v0a25.15,25.15,0,0,0,3.49,6.51l.08.12c.22.28.44.57.67.85l.18.22c.22.25.44.51.67.76l.25.27c.22.24.44.47.67.7l.31.29c.22.22.45.44.69.65l.26.22c.25.22.5.44.76.65a25.68,25.68,0,0,0,34.36-1.92c.61-.62,1.2-1.27,1.76-2,.28-.36.55-.71.81-1.08C50.14,76.09,50.15,76.07,50.16,76.06Z"/></g><rect class="cls-3" x="25.32" y="0.58" width="0.44" height="69.75"/><rect class="cls-3" x="25.07" y="0.33" width="0.94" height="70.25"/><path class="cls-4" d="M9.57,78.89A25.68,25.68,0,1,1,45.68,75,25.69,25.69,0,0,1,9.57,78.89Z"/><g class="cls-5"><path class="cls-2" d="M9.43,39A25.68,25.68,0,1,0,48.58,70.54,25.69,25.69,0,0,1,9.43,39Z"/></g><path class="cls-6" d="M42.4,57.77h-.2A1.6,1.6,0,0,1,40.81,56c0-.31.56-6.63-8.33-10.85a1.59,1.59,0,1,1,1.37-2.88C44.94,47.52,44,56,44,56.37A1.6,1.6,0,0,1,42.4,57.77Z"/><path class="cls-3" d="M30.2,33.6c0,.8-6.9,1.5-9,0V30.78h9Z"/><path class="cls-7" d="M30.2,30.78c0,.29-2,.77-4.51.77s-4.51-.48-4.51-.77,2-.53,4.51-.53S30.2,30.49,30.2,30.78Z"/><path class="cls-3" d="M27.87,30.35c0,.39-3.34.73-4.37,0v-3h4.37Z"/><path class="cls-7" d="M27.87,27.33a4.2,4.2,0,0,1-2.18.36,4.23,4.23,0,0,1-2.19-.36,4.89,4.89,0,0,1,2.19-.26A4.87,4.87,0,0,1,27.87,27.33Z"/></svg>