<svg id="Calque_1" data-name="Calque 1" xmlns="http://www.w3.org/2000/svg" viewBox="0 0 54.99 159.24"><defs><style>.cls-1{opacity:0.07;}.cls-2{fill:#070909;}.cls-3,.cls-7{fill:#8f8f8f;}.cls-3{stroke:#8f8f8f;stroke-miterlimit:10;stroke-width:0.5px;}.cls-4{fill:#1e918d;}.cls-5{opacity:0.2;}.cls-6{fill:#fff;}.cls-8{fill:#a2a2a2;}</style></defs><g class="cls-1"><rect class="cls-2" x="28.94" width="0.44" height="101.76"/><path class="cls-2" d="M50.16,148.55a25.7,25.7,0,0,0-16.34-40.29v-2.8c0-.2-.94-.37-2.33-.46v-3a5,5,0,0,0-2.18-.25,5,5,0,0,0-2.19.25v3c-1.38.09-2.32.26-2.32.46v2.81a25.61,25.61,0,0,0-11.75,5.39h0l0,0c-.35.29-.7.59-1,.9l-.62.6-.33.32c-.28.29-.55.57-.81.87l-.06.06a25.45,25.45,0,0,0-5.46,9.77c0,.12-.07.24-.1.35s-.14.5-.2.75-.09.38-.14.58-.09.43-.13.64S4,129,4,129.22l-.09.58c0,.26-.07.51-.1.76l-.06.55-.06.8,0,.51c0,.29,0,.57,0,.85s0,.32,0,.48l0,.9c0,.33,0,.67.07,1s0,.45,0,.67.07.56.11.85l.06.41c.05.3.11.61.17.91l.06.34c.07.31.14.63.22.95a2.5,2.5,0,0,0,.07.26c.08.34.18.67.28,1,0,0,0,.11,0,.16.11.36.23.73.36,1.08v0a25.15,25.15,0,0,0,3.49,6.51l.08.12c.22.28.44.57.67.85l.18.22c.22.25.44.51.67.76l.25.27c.22.24.44.47.67.7l.31.29c.22.22.45.44.69.65l.25.22c.26.22.5.44.77.65a25.68,25.68,0,0,0,34.36-1.92c.61-.62,1.2-1.27,1.76-2,.28-.36.55-.71.81-1.08C50.14,148.58,50.15,148.56,50.16,148.55Z"/></g><rect class="cls-3" x="25.32" y="0.58" width="0.44" height="99.01"/><path class="cls-4" d="M9.57,151.38a25.68,25.68,0,1,1,36.11-3.89A25.69,25.69,0,0,1,9.57,151.38Z"/><g class="cls-5"><path class="cls-2" d="M9.43,111.48a25.69,25.69,0,1,0,36.25,36,26.17,26.17,0,0,0,2.9-4.46A25.69,25.69,0,0,1,9.43,111.48Z"/></g><path class="cls-6" d="M42.4,130.26h-.2a1.6,1.6,0,0,1-1.39-1.77c0-.31.56-6.63-8.33-10.84a1.6,1.6,0,0,1,1.37-2.89C44.94,120,44,128.5,44,128.86A1.6,1.6,0,0,1,42.4,130.26Z"/><path class="cls-7" d="M30.2,106.11c0,.8-6.9,1.5-9,0v-2.82h9Z"/><path class="cls-8" d="M30.2,103.29c0,.29-2,.77-4.51.77s-4.51-.48-4.51-.77,2-.53,4.51-.53S30.2,103,30.2,103.29Z"/><path class="cls-7" d="M27.87,102.86c0,.39-3.34.73-4.37,0v-3h4.37Z"/><path class="cls-8" d="M27.87,99.84a4.2,4.2,0,0,1-2.18.36,4.23,4.23,0,0,1-2.19-.36,4.89,4.89,0,0,1,2.19-.26A4.87,4.87,0,0,1,27.87,99.84Z"/></svg>