<svg id="Calque_1" data-name="Calque 1" xmlns="http://www.w3.org/2000/svg" viewBox="0 0 424.69 76.54"><defs><style>.cls-1{fill:none;stroke:#aa3001;stroke-linecap:round;stroke-linejoin:round;}.cls-2{fill:#007710;}.cls-3{fill:#bb0707;}.cls-4{fill:#ff3232;}.cls-5{fill:#fff900;}.cls-6{fill:#ffcaca;}</style></defs><g id="_4" data-name="4"><path class="cls-1" d="M279.32,50.06s17.79,5.68,24.48,13.58c7.45,8.81-1.78,15.66-7.2,10.78s.42-11.16,4.54-7.32c3.11,2.9-.7,6.17-2.77,3.94-1.22-1.32.06-2.48,1-1.9"/><path class="cls-1" d="M329.5,36.22c1.43-1.78,3.24.13,1.63,1.8-2.14,2.22-6.21-1.11-2.81-4.77s8.92.88,5.4,7.08c-5.47,9.63-15.87,10.9-15.87,10.9"/><path class="cls-1" d="M359.26,63.07c1.78,1.42,3.12-.85,1.18-2.12-2.58-1.68-5.8,2.47-1.68,5.27s8.51-2.84,3.69-8.1C355,50,344.55,51,344.55,51"/><path class="cls-1" d="M248.61,40.42s18.45,2.9,28-1.17c10.6-4.54,5.42-14.79-1.6-12.86s-4.64,10.16.77,8.58c4.08-1.2,2.14-5.84-.71-4.77-1.68.63-1.06,2.25,0,2.14"/><path class="cls-1" d="M364.63,42.49s15.67-10.17,20-19.56c4.86-10.46-5.85-14.63-9.78-8.5s3.34,10.66,6.3,5.87c2.24-3.62-2.3-5.77-3.71-3.08-.83,1.6.72,2.38,1.44,1.58"/><path class="cls-1" d="M147.42,49.39S129.63,55.07,122.94,63c-7.45,8.81,1.78,15.66,7.19,10.78s-.41-11.16-4.53-7.32c-3.11,2.9.7,6.18,2.77,3.94,1.22-1.32-.06-2.48-1-1.9"/><path class="cls-1" d="M97.24,35.55c-1.43-1.78-3.24.13-1.63,1.8,2.14,2.22,6.21-1.11,2.81-4.76s-8.92.87-5.4,7.07c5.47,9.63,15.87,10.9,15.87,10.9"/><path class="cls-1" d="M67.48,62.4c-1.78,1.42-3.12-.85-1.18-2.12,2.58-1.68,5.8,2.47,1.68,5.27s-8.51-2.83-3.69-8.1c7.48-8.17,17.9-7.09,17.9-7.09"/><path class="cls-1" d="M178.13,39.75s-18.45,2.9-28-1.17c-10.61-4.54-5.42-14.79,1.6-12.86s4.64,10.16-.77,8.58c-4.08-1.2-2.14-5.84.71-4.77,1.68.63,1.05,2.25,0,2.14"/><path class="cls-1" d="M62.11,41.82s-15.67-10.17-20-19.56c-4.86-10.46,5.85-14.63,9.78-8.5s-3.34,10.66-6.3,5.87c-2.24-3.62,2.3-5.77,3.7-3.08.83,1.6-.71,2.38-1.43,1.58"/><path class="cls-2" d="M200.85,26.7S190.41,35,180,27.53c0,0,3.57,5.77,7.7,6.59,0,0-17,1.65-26.67-3.29,0,0,1.1,6.87,9.07,7.69,0,0-19.8,9.63-38.49-2.47,0,0,5.77,9.07,11.82,9.62,0,0-7.63.22-12.2-3.57,0,0,1.57,5.62,6.27,6.79,0,0-8.22,1-15.92-6,0,0,.65,5,4.43,6.13,0,0-17.35.13-24.53-10.44,0,0-2.09,8,2.35,10.31,0,0-12.53-2.09-18.8-13.44,0,0-2.48,6.39,1.44,9.66,0,0-18.79-1.18-23.49-15.14,0,0-1.56,3.52.51,8.37-2.3-3.75-7.16-10.2-14.61-13.07,0,0,3.27,5,2.74,7.7A32.66,32.66,0,0,1,33.05,14.7s-2.87,6.65.39,12.14c0,0-11.09-5.36-12.39-21,0,0-2.35,4.44-.92,8.36,0,0-4.3-5.75-2.74-11.88,0,0-6,6.1-.63,13.22,0,0-10.63-3.27-16.76-1.57,0,0,6.9,10.5,16.35,13.67,0,0-11-1-13.31,6.26,0,0,5.66-3.51,9.15-2.1,0,0-5.5,3-5.76,6.41,0,0,18.27-6.26,35,1.57,0,0-10-.53-14.75,8,0,0,20.88-7.57,40.06,2.08,0,0-7.3.53-9,6.4,0,0,16.57-5.09,31.45-3.39,0,0-5.48.91-6.26,6.26,0,0,12.13-5.09,22.18-3.78,0,0-7,2.74-7.18,7.57,0,0,8.75-4.57,16.84-3.92,0,0-6.92,3.92-4,10.83,0,0,5.22-11.74,21.15-13.44a9.56,9.56,0,0,0-3,6.66s6.33-4.68,11.76-5.06c-.76.43-1.68,2.18-1.45,8.32,0,0,11.1-16.31,22.06-16.71,0,0-4.18,2.48-2.09,8.88,0,0,6-9.4,15.14-11.36A8.12,8.12,0,0,1,169,53.59s7.05,1.3,13.57-9.27c0,0-1.69,4.44-.39,7.31,0,0,2.74-8.74,8.09-9.92a8.3,8.3,0,0,0-1.43,6.66s4.17-11.88,11-12.92S206.17,23.43,200.85,26.7Z"/><path class="cls-2" d="M223.83,26.7s10.45,8.25,20.9.83c0,0-3.57,5.77-7.7,6.59,0,0,17.05,1.65,26.67-3.29,0,0-1.1,6.87-9.07,7.69,0,0,19.79,9.63,38.49-2.47,0,0-5.77,9.07-11.82,9.62,0,0,7.63.22,12.19-3.57,0,0-1.56,5.62-6.26,6.79,0,0,8.22,1,15.92-6,0,0-.65,5-4.44,6.13,0,0,17.36.13,24.54-10.44,0,0,2.09,8-2.35,10.31,0,0,12.53-2.09,18.79-13.44,0,0,2.48,6.39-1.43,9.66,0,0,18.79-1.18,23.49-15.14,0,0,1.56,3.52-.52,8.37,2.31-3.75,7.17-10.2,14.61-13.07,0,0-3.26,5-2.74,7.7A32.66,32.66,0,0,0,391.63,14.7s2.88,6.65-.39,12.14c0,0,11.1-5.36,12.4-21,0,0,2.35,4.44.91,8.36,0,0,4.31-5.75,2.75-11.88,0,0,6,6.1.63,13.22,0,0,10.62-3.27,16.76-1.57,0,0-6.9,10.5-16.35,13.67,0,0,11-1,13.31,6.26,0,0-5.67-3.51-9.15-2.1,0,0,5.5,3,5.76,6.41,0,0-18.27-6.26-35,1.57,0,0,10.05-.53,14.75,8,0,0-20.88-7.57-40.07,2.08,0,0,7.31.53,9,6.4,0,0-16.58-5.09-31.45-3.39,0,0,5.48.91,6.26,6.26,0,0-12.14-5.09-22.19-3.78,0,0,7.05,2.74,7.18,7.57,0,0-8.74-4.57-16.83-3.92,0,0,6.91,3.92,4,10.83,0,0-5.22-11.74-21.14-13.44a9.57,9.57,0,0,1,3,6.66s-6.32-4.68-11.76-5.06c.76.43,1.69,2.18,1.45,8.32,0,0-11.09-16.31-22-16.71,0,0,4.17,2.48,2.08,8.88,0,0-6-9.4-15.13-11.36a8.12,8.12,0,0,0,5.22,6.53s-7.05,1.3-13.58-9.27c0,0,1.7,4.44.39,7.31,0,0-2.74-8.74-8.09-9.92a8.32,8.32,0,0,1,1.44,6.66s-4.18-11.88-11-12.92S218.51,23.43,223.83,26.7Z"/><path class="cls-3" d="M240.16,38.75C235.06,28.59,228.42,26,222.88,26c9.27-6.41,7.35-20.3,7.35-20.3-11.15,1.56-15.79,6.92-17.59,12.13C209.55,7.08,195.93,4.34,195.93,4.34c-2.23,11.27,1.5,17.43,5.94,20.8-11.36-.67-18.34,11.66-18.34,11.66,10.94,6.16,18.31,3.65,22.83-.07-4.78,11.45,6.48,22,6.48,22,7.52-8.06,7.9-15,6.15-20.17C228,44.81,240.16,38.75,240.16,38.75Z"/><path class="cls-4" d="M241.16,20.47c-10.18-5-17.07-3.16-21.48.18C223.23,10,213.35,0,213.35,0c-8,8-8.46,15-6.77,20.27-8.92-6.72-21.45-.72-21.45-.72,5,10.34,11.67,13,17.24,13.05-9.48,6.29-7.65,20.34-7.65,20.34,12.45-1.65,16.84-8.08,18.21-13.78,3.06,12,18.41,13.72,18.41,13.72,1.17-11-2.71-16.76-7.2-19.82C235.08,32.63,241.16,20.47,241.16,20.47Z"/><path class="cls-5" d="M215.07,24.86a2.38,2.38,0,1,1-2.38-2.37A2.38,2.38,0,0,1,215.07,24.86Z"/><path class="cls-5" d="M219.18,28.52a2.38,2.38,0,1,1-2.37-2.37A2.38,2.38,0,0,1,219.18,28.52Z"/><path class="cls-5" d="M215.58,32.57a2.37,2.37,0,1,1-2.37-2.37A2.38,2.38,0,0,1,215.58,32.57Z"/><path class="cls-5" d="M211.31,28.67a2.38,2.38,0,1,1-2.37-2.37A2.38,2.38,0,0,1,211.31,28.67Z"/><circle class="cls-4" cx="113.17" cy="55.23" r="9.36" transform="translate(-5.91 96.2) rotate(-45)"/><path class="cls-6" d="M114.45,49.8c.49,1.65-.72,3.46-2.7,4.05s-4-.27-4.47-1.91.72-3.46,2.69-4S114,48.16,114.45,49.8Z"/><circle class="cls-4" cx="54.72" cy="40.51" r="7.17"/><path class="cls-6" d="M55.69,36.35A2.91,2.91,0,0,1,50.2,38a2.91,2.91,0,0,1,5.49-1.64Z"/><circle class="cls-4" cx="273.34" cy="51.71" r="9.3" transform="translate(43.5 208.42) rotate(-45)"/><path class="cls-6" d="M274.6,46.31c.49,1.64-.71,3.44-2.68,4s-3.95-.26-4.44-1.89.71-3.44,2.68-4S274.12,44.68,274.6,46.31Z"/><path class="cls-4" d="M388.49,34.12A7.17,7.17,0,1,1,381.32,27,7.17,7.17,0,0,1,388.49,34.12Z"/><path class="cls-6" d="M382.3,30a2.91,2.91,0,0,1-5.49,1.64A2.91,2.91,0,0,1,382.3,30Z"/><circle class="cls-4" cx="163.39" cy="41.34" r="7.17"/><path class="cls-6" d="M164.36,37.19a2.91,2.91,0,0,1-5.49,1.63,2.91,2.91,0,0,1,5.49-1.63Z"/><path class="cls-4" d="M340.76,52.24a7.17,7.17,0,1,1-7.17-7.17A7.17,7.17,0,0,1,340.76,52.24Z"/><path class="cls-6" d="M334.57,48.08a2.91,2.91,0,0,1-5.49,1.64,2.91,2.91,0,0,1,5.49-1.64Z"/></g></svg>