<svg id="Calque_1" data-name="Calque 1" xmlns="http://www.w3.org/2000/svg" viewBox="0 0 429.87 69.36"><defs><style>.cls-1{fill:#004b00;}.cls-2{fill:#ff3b11;}.cls-3{fill:#fff;}.cls-4{fill:#ff3232;}.cls-5{fill:#00a011;}.cls-6{fill:none;stroke:#004b00;stroke-linecap:round;stroke-linejoin:round;}.cls-7{fill:#bb0707;}</style></defs><g id="_5" data-name="5"><path class="cls-1" d="M203.46,26.29s-10.45,8.24-20.9.82c0,0,3.58,5.77,7.7,6.6,0,0-17,1.65-26.67-3.3,0,0,1.1,6.87,9.08,7.7,0,0-19.8,9.62-38.49-2.48,0,0,5.77,9.08,11.82,9.63,0,0-7.63.21-12.2-3.57,0,0,1.57,5.61,6.27,6.79,0,0-8.23,1-15.93-6,0,0,.66,5,4.44,6.14,0,0-17.36.13-24.53-10.44,0,0-2.09,8,2.34,10.31,0,0-12.52-2.09-18.79-13.45,0,0-2.48,6.4,1.44,9.66,0,0-18.8-1.17-23.49-15.14,0,0-1.56,3.52.51,8.37-2.31-3.75-7.16-10.2-14.61-13.07,0,0,3.26,5,2.74,7.7A32.62,32.62,0,0,1,35.66,14.28s-2.87,6.66.39,12.14c0,0-11.09-5.35-12.4-21,0,0-2.35,4.44-.91,8.35,0,0-4.31-5.74-2.74-11.88,0,0-6,6.11-.64,13.22,0,0-10.62-3.26-16.75-1.57C2.61,13.53,9.5,24,19,27.2c0,0-11-1-13.32,6.27,0,0,5.67-3.52,9.16-2.11,0,0-5.5,3-5.76,6.41,0,0,18.27-6.26,35,1.57,0,0-10-.52-14.74,8,0,0,20.88-7.57,40.06,2.09,0,0-7.31.52-9,6.39,0,0,16.57-5.09,31.45-3.39,0,0-5.48.91-6.27,6.27,0,0,12.14-5.09,22.19-3.79,0,0-7,2.74-7.18,7.57,0,0,8.75-4.57,16.84-3.92,0,0-6.92,3.92-4,10.84,0,0,5.22-11.75,21.14-13.45a9.57,9.57,0,0,0-3,6.66s6.32-4.68,11.76-5.06c-.76.44-1.69,2.19-1.45,8.32,0,0,11.09-16.31,22.06-16.7,0,0-4.18,2.48-2.09,8.87,0,0,6-9.39,15.14-11.35a8.09,8.09,0,0,1-5.22,6.52s7,1.31,13.57-9.26c0,0-1.7,4.44-.39,7.31,0,0,2.74-8.75,8.09-9.92A8.28,8.28,0,0,0,191.49,48s4.17-11.87,11-12.92S208.78,23,203.46,26.29Z"/><path class="cls-1" d="M226.44,26.29s10.45,8.24,20.9.82c0,0-3.58,5.77-7.7,6.6,0,0,17,1.65,26.67-3.3,0,0-1.1,6.87-9.08,7.7,0,0,19.8,9.62,38.5-2.48,0,0-5.78,9.08-11.83,9.63,0,0,7.63.21,12.2-3.57,0,0-1.57,5.61-6.26,6.79,0,0,8.22,1,15.92-6,0,0-.65,5-4.44,6.14,0,0,17.36.13,24.54-10.44,0,0,2.08,8-2.35,10.31,0,0,12.53-2.09,18.79-13.45,0,0,2.48,6.4-1.44,9.66,0,0,18.8-1.17,23.5-15.14,0,0,1.55,3.52-.52,8.37,2.31-3.75,7.16-10.2,14.61-13.07,0,0-3.26,5-2.74,7.7a32.62,32.62,0,0,0,18.53-18.27s2.87,6.66-.39,12.14c0,0,11.09-5.35,12.4-21,0,0,2.35,4.44.91,8.35,0,0,4.31-5.74,2.74-11.88,0,0,6,6.11.64,13.22,0,0,10.62-3.26,16.75-1.57,0,0-6.89,10.5-16.34,13.67,0,0,10.95-1,13.31,6.27,0,0-5.67-3.52-9.15-2.11,0,0,5.49,3,5.75,6.41,0,0-18.27-6.26-35,1.57,0,0,10.05-.52,14.75,8,0,0-20.88-7.57-40.07,2.09,0,0,7.31.52,9,6.39,0,0-16.58-5.09-31.46-3.39,0,0,5.48.91,6.27,6.27,0,0-12.14-5.09-22.19-3.79,0,0,7.05,2.74,7.18,7.57,0,0-8.74-4.57-16.84-3.92,0,0,6.92,3.92,4,10.84,0,0-5.22-11.75-21.14-13.45a9.57,9.57,0,0,1,3,6.66s-6.32-4.68-11.76-5.06c.76.44,1.69,2.19,1.45,8.32,0,0-11.09-16.31-22.06-16.7,0,0,4.18,2.48,2.09,8.87,0,0-6-9.39-15.14-11.35a8.09,8.09,0,0,0,5.22,6.52s-7,1.31-13.57-9.26c0,0,1.7,4.44.39,7.31,0,0-2.74-8.75-8.09-9.92A8.31,8.31,0,0,1,238.42,48s-4.18-11.87-11-12.92S221.12,23,226.44,26.29Z"/><path class="cls-2" d="M377.42,55a2.76,2.76,0,0,1-1.13-.24c-.94-.42-2.12-1.49-2.44-4.2-.85-7.06,4.56-22.71,18.88-33.88,14.72-11.48,31-8.57,37.14-7.47l-.52,3c-9.83-1.75-22.66-2.56-34.77,6.88-13.89,10.84-18.42,25.65-17.76,31.17a2.84,2.84,0,0,0,.64,1.78c.78-.28,2.42-3.33,3-7.46,1.37-.06,3,0,3,0-.34,4.56-2.14,8.68-4.39,10A3.17,3.17,0,0,1,377.42,55Z"/><path class="cls-2" d="M332.07,65.34a4.22,4.22,0,0,1-3.69-2.16c-3.24-5.29-.12-19.45,8.76-29.8,5-5.81,15.39-15,28.95-11.09a28.62,28.62,0,0,1,7.74,3.37,13.08,13.08,0,0,1,1.15.86,28,28,0,0,0-2.59,1.76,26.62,26.62,0,0,0-7.13-3.11c-11.95-3.43-21.32,4.9-25.85,10.17-8.18,9.53-10.78,22.51-8.47,26.27a1.31,1.31,0,0,0,1.64.67c.54-.13,1.22-.38,1.39-.82.43-1.05-1.11-3.47-1.77-4.5-.22-.34-1.07-1.69-1.21-1.93,0,0,3.92.61,4,.76,1.13,1.8,2.67,4.5,1.75,6.79a4.59,4.59,0,0,1-3.47,2.61A5.22,5.22,0,0,1,332.07,65.34Z"/><path class="cls-2" d="M269.26,63.94a4.44,4.44,0,0,1-4.39-2.69c-1.5-3.51.86-9.9,5.26-14.25,14.55-14.37,35-16.87,51.12-6.33l1.48,1a16.28,16.28,0,0,1-2.59,1.91c-15-10.16-34.23-7.91-47.9,5.6-3.74,3.69-5.52,8.81-4.61,10.93.18.42.54.91,1.74.87a2.8,2.8,0,0,0,2.37-1.14c1.44-2,1-6.68.33-9a24.06,24.06,0,0,1,3.49,2c.39,2.71.36,6.38-1.4,8.79a5.8,5.8,0,0,1-4.71,2.37Z"/><path class="cls-2" d="M270.82,41.59A22.14,22.14,0,0,0,255,27.11c-9.83-2.45-22.46,4.46-25.49,14l-2.86-.92c3.46-10.84,17.86-18.74,29.07-15.95A25.79,25.79,0,0,1,272.16,37a19.07,19.07,0,0,1,1.7,4.65Z"/><path class="cls-2" d="M326.13,44.42a19.38,19.38,0,0,1,2.4,2.48A20.79,20.79,0,0,1,325.41,48l-.53-.65A6.15,6.15,0,0,0,326.13,44.42Z"/><path class="cls-2" d="M52.45,55a2.62,2.62,0,0,0,1.13-.25c.94-.42,2.12-1.49,2.45-4.19.85-7.07-4.57-22.72-18.89-33.89C22.42,5.17,6.13,8.08,0,9.17l.53,2.95C10.36,10.37,23.19,9.57,35.3,19,49.19,29.84,53.71,44.65,53.05,50.17A2.84,2.84,0,0,1,52.41,52c-.77-.28-2.42-3.33-3-7.45-1.37-.06-3,0-3,0,.34,4.56,2.14,8.68,4.38,10A3.17,3.17,0,0,0,52.45,55Z"/><path class="cls-2" d="M97.8,65.33a4.24,4.24,0,0,0,3.7-2.17c3.24-5.28.12-19.45-8.76-29.79-5-5.82-15.4-15-28.95-11.1A28.56,28.56,0,0,0,56,25.65a13.08,13.08,0,0,0-1.15.86,26.86,26.86,0,0,1,2.59,1.75,26.83,26.83,0,0,1,7.14-3.11c11.94-3.43,21.31,4.9,25.84,10.17,8.19,9.53,10.79,22.51,8.48,26.28a1.31,1.31,0,0,1-1.65.66c-.53-.13-1.21-.38-1.39-.81C95.48,60.39,97,58,97.67,57c.22-.35,1.07-1.7,1.21-1.94,0,0-3.92.61-4,.76-1.13,1.8-2.66,4.51-1.74,6.79a4.58,4.58,0,0,0,3.46,2.62A5.28,5.28,0,0,0,97.8,65.33Z"/><path class="cls-2" d="M160.62,63.93a4.45,4.45,0,0,0,4.39-2.7c1.49-3.5-.87-9.89-5.27-14.24-14.55-14.37-35-16.88-51.12-6.34l-1.48,1a17.23,17.23,0,0,0,2.59,1.9c15-10.16,34.23-7.9,47.9,5.6,3.74,3.69,5.52,8.82,4.62,10.93-.18.43-.55.92-1.75.88a2.79,2.79,0,0,1-2.36-1.15c-1.45-2-1-6.68-.34-9a25.19,25.19,0,0,0-3.49,2c-.39,2.72-.35,6.38,1.4,8.79a5.77,5.77,0,0,0,4.71,2.37Z"/><path class="cls-2" d="M159.06,41.58a22.1,22.1,0,0,1,15.85-14.49c9.82-2.44,22.46,4.47,25.49,14l2.85-.91c-3.46-10.85-17.86-18.75-29.07-16A25.75,25.75,0,0,0,157.72,37a18.6,18.6,0,0,0-1.7,4.66Z"/><path class="cls-2" d="M103.74,44.41a19.84,19.84,0,0,0-2.4,2.47A19.42,19.42,0,0,0,104.47,48l.52-.65A6.2,6.2,0,0,1,103.74,44.41Z"/><path class="cls-3" d="M245.61,40.06a1.51,1.51,0,1,1-1.51-1.51A1.52,1.52,0,0,1,245.61,40.06Z"/><path class="cls-3" d="M181.69,41a1.51,1.51,0,1,1-1.5-1.51A1.5,1.5,0,0,1,181.69,41Z"/><path class="cls-3" d="M121.69,54.51A1.51,1.51,0,1,1,120.18,53,1.52,1.52,0,0,1,121.69,54.51Z"/><path class="cls-3" d="M113.39,50.51a1.51,1.51,0,1,1-1.51-1.5A1.5,1.5,0,0,1,113.39,50.51Z"/><path class="cls-3" d="M76.88,46.37a1.51,1.51,0,1,1-1.5-1.51A1.5,1.5,0,0,1,76.88,46.37Z"/><circle class="cls-3" cx="21.03" cy="20.23" r="1.51"/><path class="cls-3" d="M309.54,54a1.51,1.51,0,1,1-1.5-1.5A1.5,1.5,0,0,1,309.54,54Z"/><path class="cls-3" d="M373.08,35.34a1.51,1.51,0,1,1-1.51-1.51A1.51,1.51,0,0,1,373.08,35.34Z"/><path class="cls-3" d="M411.42,19.72a2.59,2.59,0,1,1-2.58-2.58A2.59,2.59,0,0,1,411.42,19.72Z"/><circle class="cls-3" cx="346.28" cy="49.87" r="2.58"/><path class="cls-3" d="M255.2,39.54A2.59,2.59,0,1,1,252.62,37,2.59,2.59,0,0,1,255.2,39.54Z"/><circle class="cls-3" cx="146.32" cy="52.59" r="2.58"/><path class="cls-3" d="M33.15,30.6A2.58,2.58,0,1,1,30.57,28,2.57,2.57,0,0,1,33.15,30.6Z"/><path class="cls-3" d="M410,30.81a1.51,1.51,0,1,1-1.5-1.51A1.51,1.51,0,0,1,410,30.81Z"/><path class="cls-3" d="M223.44,31.7a2.24,2.24,0,0,1-1.41-.33,2.31,2.31,0,0,1-.77-3.18c.09-.15,9.25-15.11,12.11-19.62,2.26-3.57,6.44-4.94,9.71-3.18,2.69,1.45,4.44,5.08,2.27,9.92l-.09.19-1.18,2.1a2.31,2.31,0,1,1-4-2.26l1.12-2c.81-1.86.7-3.33-.28-3.86s-2.53-.13-3.61,1.57c-2.84,4.49-12,19.42-12.07,19.57A2.33,2.33,0,0,1,223.44,31.7Z"/><polygon class="cls-4" points="227.32 27.18 224.92 22.19 222.91 25.49 225.41 30.25 227.32 27.18"/><polygon class="cls-4" points="230.6 21.83 228.37 16.62 226.67 19.38 228.91 24.58 230.6 21.83"/><polygon class="cls-4" points="232.39 10.12 230.18 13.69 232.32 19.04 234.21 15.97 232.39 10.12"/><path class="cls-4" d="M238.26,4.87a8.11,8.11,0,0,0-3.75,2.25l1.64,5.73L237.28,11c.08-.12.16-.21.24-.31Z"/><path class="cls-4" d="M243.23,5.49l-3.78,3.85a2,2,0,0,1,1.44.13l0,0s5.17-.11,5.17-.11A6.09,6.09,0,0,0,243.23,5.49Z"/><path class="cls-4" d="M241.68,10.91a5,5,0,0,1-.74,2.86l3.35,3.46A13,13,0,0,0,246,13.39Z"/><path class="cls-3" d="M203.48,32.18a2.31,2.31,0,0,0,2-3.64c-.11-.14-10.17-14.5-13.3-18.84-2.47-3.42-6.72-4.53-9.88-2.57-2.6,1.61-4.13,5.34-1.66,10l.1.18,1.3,2a2.32,2.32,0,1,0,3.9-2.5l-1.25-1.93c-.92-1.81-.9-3.29.05-3.88s2.51-.28,3.69,1.35c3.11,4.31,13.15,18.65,13.25,18.79A2.33,2.33,0,0,0,203.48,32.18Z"/><polygon class="cls-4" points="199.34 27.91 201.42 22.78 203.64 25.95 201.43 30.86 199.34 27.91"/><polygon class="cls-4" points="195.73 22.77 197.64 17.43 199.51 20.09 197.59 25.41 195.73 22.77"/><polygon class="cls-4" points="193.22 11.2 195.65 14.62 193.84 20.09 191.77 17.14 193.22 11.2"/><path class="cls-4" d="M187.05,6.31a8,8,0,0,1,3.87,2l-1.28,5.81-1.24-1.73a3.73,3.73,0,0,0-.26-.3Z"/><path class="cls-4" d="M182.12,7.24l4,3.61a2,2,0,0,0-1.42.21l0,0s-5.18.22-5.18.22A6.15,6.15,0,0,1,182.12,7.24Z"/><path class="cls-4" d="M184,12.55a5,5,0,0,0,.92,2.81L181.78,19a13.12,13.12,0,0,1-2-3.72Z"/><path class="cls-5" d="M214.5,27.86s-.44-4.51-5.84-4.29c0,0,2.2-5.29-3.19-6.61,0,0,4.07-3.75,1.76-8.71,0,0,6.06-.65,6.5-8.25,0,0,1.87,6.5,7.7,7.49,0,0-2.53,5.07,1.55,8.15,0,0-4.08,3.19-2.21,7.49C220.77,23.13,215.38,23.35,214.5,27.86Z"/><line class="cls-6" x1="213.94" y1="10.96" x2="215.03" y2="26.05"/><polyline class="cls-6" points="210.55 13.59 214.48 17.52 217.44 13.26"/><polyline class="cls-6" points="211.09 19.49 214.81 22.66 217.98 18.29"/><path class="cls-5" d="M221,33.88s4-4.45,9.21,0c0,0,2.34-5,8.52-3.12a8.49,8.49,0,0,1,4.93-10.52s-9.65.52-12.08-4.67c0,0-2.39,6.61-7.49,4.54,0,0-.63,5.13-5.67,4.61,0,0-.45,4.09-3,5.5C215.45,30.24,219.94,31.06,221,33.88Z"/><line class="cls-6" x1="232.79" y1="24.27" x2="216.44" y2="30.14"/><polyline class="cls-6" points="230.19 21.38 226.29 26.46 230.61 28.14"/><path class="cls-5" d="M216,32.59s3.13,3.9,8,.44c0,0,1.16,6.2,6.93,4.17,0,0-1.49,5.92,3.63,9.1,0,0-5.19,4.25-1,11.53,0,0-5.64-4.87-11.63-2.26,0,0-.72-6.2-6.34-6.59,0,0,1.84-5.4-2.48-8.24C213.08,40.74,217.92,37.28,216,32.59Z"/><line class="cls-6" x1="226.73" y1="47.84" x2="216.62" y2="34.58"/><polyline class="cls-6" points="228.27 43.38 222.26 42.12 222.11 47.84"/><polyline class="cls-6" points="224.21 38.26 218.86 37.58 218.57 43.52"/><path class="cls-5" d="M206.92,33.65s.2,6-6.61,6.36c0,0,1.77,5.2-3.95,8.13a8.46,8.46,0,0,1,3.75,11s6.55-7.05,11.9-5c0,0-2.87-6.39,2.22-8.44,0,0-3.1-4.11.87-7.22,0,0-2.51-3.24-1.68-6C213.42,32.42,209.64,34.94,206.92,33.65Z"/><line class="cls-6" x1="205.12" y1="48.7" x2="212.78" y2="33.18"/><polyline class="cls-6" points="208.99 48.97 208.27 42.63 204.01 44.41"/><path class="cls-5" d="M211.33,25.31s-6.15.84-7.27-6.14c0,0-5.16,2.37-8.8-3.22a8.77,8.77,0,0,1-10.89,5s8,6,6.42,11.73c0,0,6.29-3.63,8.94,1.4,0,0,3.91-3.63,7.55.14,0,0,3.07-2.93,6-2.37C213.28,31.88,210.28,28.24,211.33,25.31Z"/><line class="cls-6" x1="196.65" y1="24.83" x2="210.1" y2="30.52"/><polyline class="cls-6" points="201.64 23.17 203.86 27.88 198.86 29.82"/><path class="cls-4" d="M215.3,27.22a3.65,3.65,0,1,1-3.65-3.65A3.66,3.66,0,0,1,215.3,27.22Z"/><path class="cls-7" d="M220.62,27.14A3.65,3.65,0,1,1,217,23.48,3.66,3.66,0,0,1,220.62,27.14Z"/><path class="cls-7" d="M215.42,32.32a3.65,3.65,0,1,1-3.65-3.65A3.65,3.65,0,0,1,215.42,32.32Z"/><path class="cls-4" d="M220.57,32.48a3.65,3.65,0,1,1-3.65-3.65A3.66,3.66,0,0,1,220.57,32.48Z"/></g></svg>