<?xml version="1.0" encoding="utf-8"?>
<!-- Generator: Adobe Illustrator 24.2.1, SVG Export Plug-In . SVG Version: 6.00 Build 0)  -->
<svg version="1.1" id="Calque_1" xmlns="http://www.w3.org/2000/svg" xmlns:xlink="http://www.w3.org/1999/xlink" x="0px" y="0px"
	 viewBox="0 0 600 222.6" style="enable-background:new 0 0 600 222.6;" xml:space="preserve">
<style type="text/css">
	.st0{clip-path:url(#SVGID_2_);}
	.st1{fill:#D60441;}
</style>
<g>
	<g>
		<defs>
			<rect id="SVGID_1_" y="0" width="600" height="222.6"/>
		</defs>
		<clipPath id="SVGID_2_">
			<use xlink:href="#SVGID_1_"  style="overflow:visible;"/>
		</clipPath>
		<g class="st0">
			<path class="st1" d="M-7.6,222.6c104.1-0.2,417.8,6.8,413.4,3.2l204.3-1.2c-0.5-30.2-5.2-60.4-3.2-90.4
				c-83.2-28.2-176.7-33-263.7-4.7c-111.9-54.8-234-70.9-349.8-22.1c5.2,19.3,2.3,41.1,0.2,60.4c-1.4,13.1-1.5,26-1.3,39.1
				C-7.6,212.1-7.6,217.3-7.6,222.6z"/>
			<polygon class="st1" points="552.3,39.3 574.1,79.7 552.3,75.8 577.9,115.1 545.2,101.5 545.7,125 528.8,125.5 533.7,101 
				499.3,107.5 523.3,74.8 509.1,76.4 531,40.4 516.8,39.8 542.4,0 566.4,43.7 			"/>
			<polygon class="st1" points="460.1,53.1 477.4,83.3 460.1,80.5 480.4,109.9 454.5,99.7 454.9,117.2 441.5,117.6 445.4,99.3 
				418.1,104.2 437.1,79.7 425.9,80.9 443.2,54 432,53.6 452.3,23.8 471.3,56.4 			"/>
			<polygon class="st1" points="497.5,45.8 515.7,78.4 499.7,76.4 520.6,107.9 496.2,98.2 498.1,117.8 486,119.1 488,98.3 
				463.7,105.6 478.9,77 468.8,79.1 482.3,47.8 472.1,48.1 488.2,8.1 507.9,48.7 			"/>
		</g>
	</g>
</g>
<polygon class="st1" points="123.9,31.6 136,0 150.6,28.8 143,29.3 155.1,51.8 147.5,50.9 160.7,71.2 142,67.4 144.9,82.8 
	135.8,82.6 135.9,67.8 118.3,76.7 131.9,51.8 120,54.3 131.5,28.8 "/>
<polygon class="st1" points="170.8,34.9 186.6,2.4 199.5,34.4 191.3,34.2 202.1,59.2 194,57.6 206.2,80.4 186.8,74.6 188.4,91.2 
	178.7,90.2 180.2,74.5 160.7,82.3 177.4,57.1 164.6,58.7 179.2,32.6 "/>
</svg>
