<?xml version="1.0" encoding="utf-8"?>
<!-- Generator: Adobe Illustrator 24.2.1, SVG Export Plug-In . SVG Version: 6.00 Build 0)  -->
<svg version="1.1" id="Calque_1" xmlns="http://www.w3.org/2000/svg" xmlns:xlink="http://www.w3.org/1999/xlink" x="0px" y="0px"
	 viewBox="0 0 600 222.6" style="enable-background:new 0 0 600 222.6;" xml:space="preserve">
<style type="text/css">
	.st0{clip-path:url(#SVGID_2_);}
	.st1{fill:#FFFFFF;}
</style>
<g>
	<defs>
		<rect id="SVGID_1_" width="600" height="222.6"/>
	</defs>
	<clipPath id="SVGID_2_">
		<use xlink:href="#SVGID_1_"  style="overflow:visible;"/>
	</clipPath>
	<g class="st0">
		<path class="st1" d="M607.7,206.9c0.2-13.1,0.1-26-1.3-39.1c-2.1-19.3-5-41.1,0.2-60.4c-115.8-48.8-237.9-32.7-349.8,22.1
			C169.8,101.2,76.3,106-6.9,134.2c2,30-2.7,60.2-3.2,90.4l204.3,1.2c-4.4,3.6,309.3-3.4,413.4-3.2
			C607.6,217.3,607.6,212.1,607.7,206.9z"/>
		<polygon class="st1" points="33.6,43.7 57.6,0 83.2,39.8 69,40.4 90.9,76.4 76.7,74.8 100.7,107.5 66.3,101 71.2,125.5 54.3,125 
			54.8,101.5 22.1,115.1 47.7,75.8 25.9,79.7 47.7,39.3 		"/>
		<polygon class="st1" points="128.7,56.4 147.7,23.8 168,53.6 156.8,54 174.1,80.9 162.9,79.7 181.9,104.2 154.6,99.3 158.5,117.6 
			145.1,117.2 145.5,99.7 119.6,109.9 139.9,80.5 122.6,83.3 139.9,53.1 		"/>
		<polygon class="st1" points="92.1,48.7 111.8,8.1 127.9,48.1 117.7,47.8 131.2,79.1 121.1,77 136.3,105.6 112,98.3 114,119.1 
			101.9,117.8 103.8,98.2 79.4,107.9 100.3,76.4 84.3,78.4 102.5,45.8 		"/>
	</g>
</g>
</svg>
